<?xml version="1.0" encoding="utf-8"?>
<!-- Generator: Adobe Illustrator 17.0.0, SVG Export Plug-In . SVG Version: 6.00 Build 0)  -->
<!DOCTYPE svg PUBLIC "-//W3C//DTD SVG 1.1//EN" "http://www.w3.org/Graphics/SVG/1.1/DTD/svg11.dtd">
<svg version="1.1" id="Layer_1" xmlns="http://www.w3.org/2000/svg" xmlns:xlink="http://www.w3.org/1999/xlink" x="0px" y="0px"
	 width="23.552px" height="28.358px" viewBox="0 0 23.552 28.358" enable-background="new 0 0 23.552 28.358" xml:space="preserve">
<g>
	<g id="Expanded">
		<g>
			<g>
				<path fill="#5EB12F" d="M10.359,20.558c-5.624,0-10.2-4.576-10.2-10.2s4.576-10.2,10.2-10.2s10.2,4.576,10.2,10.2
					S15.983,20.558,10.359,20.558z M10.359,1.358c-4.963,0-9,4.037-9,9s4.037,9,9,9s9-4.037,9-9S15.321,1.358,10.359,1.358z"/>
			</g>
			<g>
				<path fill="#5EB12F" d="M10.359,23.552c-3.38,0-6.761-1.287-9.334-3.86l0.848-0.848c4.679,4.678,12.292,4.679,16.97,0
					c4.679-4.679,4.679-12.292,0-16.971l0.848-0.848c5.147,5.147,5.147,13.521,0,18.668C17.119,22.265,13.739,23.552,10.359,23.552z
					"/>
			</g>
			<g>
				<rect x="9.28" y="22.944" fill="#5EB12F" width="2.279" height="2.43"/>
			</g>
			<g>
				<path fill="#5EB12F" d="M19.938,28.358H1.378l1.442-1.08c2.201-1.649,4.808-2.52,7.538-2.52s5.937,0.871,8.137,2.52
					L19.938,28.358z"/>
			</g>
			<g>
				<path fill="#5EB12F" d="M0.6,20.716c-0.154,0-0.307-0.059-0.424-0.176c-0.235-0.235-0.235-0.614,0-0.848l1.697-1.697
					c0.235-0.235,0.614-0.235,0.848,0s0.235,0.614,0,0.848l-1.697,1.697C0.907,20.658,0.754,20.716,0.6,20.716z"/>
			</g>
			<g>
				<path fill="#5EB12F" d="M18.419,2.897c-0.154,0-0.307-0.059-0.424-0.176c-0.235-0.235-0.235-0.614,0-0.848l1.697-1.697
					c0.235-0.235,0.614-0.235,0.848,0s0.235,0.614,0,0.848l-1.697,1.697C18.726,2.839,18.573,2.897,18.419,2.897z"/>
			</g>
		</g>
	</g>
	<g id="globe-2">
		<polygon fill="#5EB12F" points="8.747,4.488 8.747,4.506 8.757,4.492 		"/>
		<path fill="#5EB12F" d="M10.358,1.021c-5.148,0-9.337,4.188-9.337,9.337s4.189,9.337,9.337,9.337c5.148,0,9.337-4.188,9.337-9.337
			C19.696,5.209,15.507,1.021,10.358,1.021z M18.888,10.358c0,0.163-0.014,0.323-0.024,0.484c-0.06-0.152-0.151-0.349-0.173-0.434
			c-0.032-0.129-0.225-0.579-0.225-0.579s-0.193-0.257-0.322-0.322c-0.128-0.065-0.225-0.225-0.45-0.353
			c-0.225-0.129-0.321-0.193-0.513-0.193c-0.194,0-0.386-0.258-0.612-0.386c-0.225-0.128-0.257-0.064-0.257-0.064
			s0.257,0.386,0.257,0.482c0,0.096,0.289,0.257,0.579,0.192c0,0,0.192,0.354,0.289,0.45c0.096,0.096-0.032,0.193-0.225,0.322
			c-0.193,0.128-0.161,0.096-0.258,0.192c-0.096,0.096-0.417,0.258-0.514,0.322c-0.096,0.064-0.482,0.257-0.674,0.064
			c-0.094-0.093-0.065-0.289-0.129-0.418c-0.065-0.129-0.739-1.125-1.061-1.574c-0.056-0.079-0.193-0.323-0.289-0.386
			c-0.096-0.065,0.225-0.065,0.225-0.065s0-0.225-0.032-0.386c-0.033-0.161,0.032-0.386,0.032-0.386s-0.322,0.192-0.419,0.257
			c-0.096,0.065-0.192-0.128-0.32-0.289c-0.129-0.16-0.258-0.354-0.289-0.515c-0.032-0.16,0.161-0.225,0.161-0.225l0.289-0.16
			c0,0,0.354-0.064,0.579-0.032c0.225,0.032,0.578,0.065,0.578,0.065s0.096-0.225-0.032-0.322c-0.128-0.096-0.418-0.257-0.547-0.225
			c-0.128,0.032,0.064-0.161,0.224-0.289L14.38,5.521c0,0-0.324,0.161-0.42,0.193c-0.096,0.032-0.264,0.096-0.393,0.257
			c-0.128,0.161,0.051,0.386-0.077,0.45c-0.128,0.065-0.215,0.096-0.312,0.128c-0.096,0.032-0.402,0-0.402,0
			c-0.332,0-0.119,0.303-0.033,0.411l-0.257-0.314l-0.19-0.449c0,0-0.274-0.192-0.403-0.256c-0.129-0.065-0.525-0.289-0.525-0.289
			l0.028,0.289l0.372,0.377l0.033,0.009l0.194,0.257l-0.428,0.032V6.36c-0.403-0.098-0.298-0.198-0.343-0.229
			c-0.096-0.064-0.319-0.225-0.319-0.225s-0.378,0.065-0.475,0.097c-0.097,0.032-0.124,0.129-0.316,0.192
			C9.921,6.26,9.834,6.356,9.77,6.452S9.496,6.838,9.369,6.967C9.24,7.096,9.001,7.063,8.905,7.063
			c-0.097,0-0.561-0.129-0.561-0.129V6.389c0,0,0.063-0.306,0.031-0.402L8.657,5.94l0.47-0.097l0.138-0.097l0.198-0.257
			c0,0-0.222-0.161-0.062-0.386c0.077-0.108,0.355-0.129,0.483-0.225c0.128-0.096,0.322-0.161,0.322-0.161s0.225-0.192,0.45-0.418
			c0,0,0.161-0.097,0.353-0.161c0,0,0.547,0.482,0.644,0.482c0.097,0,0.45-0.225,0.45-0.225s0.096-0.289,0.065-0.386
			c-0.032-0.096-0.193-0.418-0.193-0.418s-0.096,0.161-0.192,0.289c-0.096,0.129-0.161,0.289-0.161,0.289s-0.45-0.031-0.482-0.127
			c-0.033-0.097-0.096-0.256-0.129-0.351c-0.031-0.097-0.289-0.094-0.48-0.029c-0.194,0.065,0.031-0.347,0.031-0.347
			s0.194-0.243,0.322-0.243s0.418-0.165,0.546-0.196c0.129-0.032,0.516-0.179,0.676-0.179c0.161,0,0.354,0.069,0.451,0.069
			s0.482,0,0.482,0l0.674-0.054c0,0,0.579,0.214,0.386,0.343c0,0,0.226,0.139,0.322,0.235c0.09,0.091,0.324-0.084,0.457-0.158
			C17.28,4.644,18.888,7.314,18.888,10.358z M3.552,5.328c0,0.129-0.175,0.159,0,0.482c0.224,0.418,0.032,0.611,0.032,0.611
			S3.036,6.807,2.94,6.872C2.844,6.936,2.587,7.289,2.747,7.193C2.908,7.096,3.1,7,2.94,7.257C2.779,7.515,2.49,7.932,2.426,8.093
			C2.362,8.255,2.04,8.64,2.04,8.833c0,0.193-0.129,0.579-0.096,0.74c0.022,0.112-0.049,0.442-0.105,0.578
			c0.043-1.807,0.652-3.473,1.656-4.835C3.528,5.32,3.552,5.328,3.552,5.328z M4.584,4.096C5.371,3.37,6.292,2.791,7.308,2.4
			c-0.1,0.129-0.221,0.26-0.221,0.26S6.862,2.66,6.443,3.11C6.026,3.561,6.123,3.432,6.026,3.56C5.93,3.688,5.962,3.721,5.736,3.882
			c-0.224,0.16-0.321,0.353-0.321,0.353L5.061,4.364L4.773,4.235c0,0-0.258,0.097-0.226-0.032C4.556,4.169,4.57,4.133,4.584,4.096z
			 M8.437,4.846L8.309,4.653l0.128-0.289l0.31,0.124V3.914l0.296-0.16l0.246,0.353l0.378,0.418L9.416,4.718l-0.67,0.129V4.506
			L8.437,4.846z M12.617,7.867c0.075-0.059,0.321,0.096,0.321,0.096s0.803,0.161,0.932,0.257c0.129,0.097,0.354,0.161,0.418,0.258
			c0.065,0.096,0.289,0.386,0.32,0.482c0.033,0.096,0.194,0.451,0.226,0.579c0.032,0.129,0.129,0.45,0.225,0.611
			c0.096,0.161,0.643,0.868,0.836,1.19l0.58-0.096c0,0-0.065,0.289-0.129,0.386c-0.064,0.096-0.257,0.353-0.353,0.482
			c-0.097,0.129-0.225,0.322-0.418,0.482c-0.192,0.16-0.194,0.321-0.289,0.45c-0.096,0.129-0.225,0.418-0.225,0.418
			s0.065,0.643,0.096,0.772c0.032,0.129-0.225,0.482-0.225,0.482l-0.29,0.29l-0.388,0.513l0.032,0.482c0,0-0.293,0.226-0.454,0.354
			c-0.159,0.128-0.134,0.225-0.263,0.354c-0.128,0.128-0.631,0.353-0.759,0.386c-0.129,0.032-0.838,0.129-0.838,0.129v-0.289
			l-0.014-0.322c0,0-0.098-0.386-0.194-0.514c-0.097-0.129-0.055-0.322-0.216-0.482c-0.161-0.161-0.22-0.289-0.252-0.386
			c-0.032-0.096,0.035-0.385,0.035-0.385s0.13-0.354,0.194-0.482c0.065-0.129,0.001-0.321-0.064-0.45
			c-0.065-0.129-0.096-0.451-0.096-0.546c0-0.096-0.258-0.258-0.355-0.354c-0.096-0.096-0.064-0.225-0.064-0.353
			c0-0.13-0.096-0.418-0.065-0.644c0.032-0.225-0.289-0.065-0.482,0c-0.193,0.065-0.321-0.065-0.321-0.258
			c0-0.193-0.353-0.032-0.579,0.096c-0.226,0.129-0.482,0.129-0.741,0.225c-0.256,0.096-0.384-0.096-0.384-0.096
			s-0.226-0.192-0.386-0.289c-0.161-0.096-0.322-0.289-0.451-0.449c-0.128-0.161-0.45-0.644-0.481-0.836
			c-0.032-0.194,0-0.323,0-0.548c0-0.225,0-0.353,0.032-0.514C7.12,9.185,7.217,8.992,7.313,8.831
			C7.41,8.67,7.764,8.478,7.859,8.413c0.096-0.064,0.322-0.256,0.322-0.386c0-0.129,0.129-0.192,0.192-0.322
			c0.065-0.129,0.29-0.449,0.579-0.321c0,0,0.256-0.032,0.353-0.064c0.096-0.032,0.353-0.128,0.48-0.192
			c0.129-0.065,0.449-0.095,0.449-0.095s0.253,0.101,0.349,0.101c0.096,0,0.41-0.056,0.41-0.056s0.145,0.466,0.145,0.563
			s0.096,0.192,0.258,0.257C11.555,7.964,12.295,8.125,12.617,7.867z M16.313,14.169c0,0.096-0.032,0.354-0.065,0.482
			c-0.034,0.129-0.097,0.354-0.129,0.481c-0.032,0.129-0.193,0.386-0.289,0.451c-0.096,0.065-0.258,0.258-0.353,0.289
			c-0.096,0.032-0.161-0.225-0.129-0.354c0.033-0.129,0.193-0.482,0.193-0.482s0.032-0.192,0.064-0.322
			c0.033-0.128,0.418-0.289,0.418-0.289l0.258-0.482C16.281,13.943,16.313,14.073,16.313,14.169z M2.048,12.253
			c0.042,0.011,0.101,0.041,0.185,0.115c0.121,0.105,0.193,0.159,0.354,0.225c0.16,0.065,0.225,0.16,0.418,0.257
			c0.193,0.097,0.129,0.033,0.386,0.322c0.258,0.289,0.225,0.289,0.289,0.45c0.064,0.161,0.161,0.321,0.225,0.418
			c0.065,0.096,0.257,0.16,0.353,0.225c0.096,0.065,0.257,0.129,0.353,0.129c0.097,0,0.386,0.289,0.547,0.321
			c0.161,0.033,0.161,0.355,0.161,0.355l-0.161,0.449l-0.129,0.482l0.129,0.386c0,0-0.194,0.161-0.321,0.161
			c-0.119,0-0.159,0.075-0.289,0.04C3.323,15.442,2.434,13.945,2.048,12.253z"/>
	</g>
</g>
</svg>
