<?xml version="1.0" encoding="utf-8"?>
<!-- Generator: Adobe Illustrator 17.0.0, SVG Export Plug-In . SVG Version: 6.00 Build 0)  -->
<!DOCTYPE svg PUBLIC "-//W3C//DTD SVG 1.1//EN" "http://www.w3.org/Graphics/SVG/1.1/DTD/svg11.dtd">
<svg version="1.1" id="Layer_1" xmlns="http://www.w3.org/2000/svg" xmlns:xlink="http://www.w3.org/1999/xlink" x="0px" y="0px"
	 width="30px" height="30px" viewBox="241 0 30 30" enable-background="new 241 0 30 30" xml:space="preserve">
<g>
	<g>
		<path fill="#BCBCBC" d="M267.13,13.532l0.37-0.054c0.032,0.164,0.061,0.329,0.086,0.494c-0.005-0.01-0.01-0.019-0.015-0.029
			l-0.412,0.467l-0.317-0.35l-0.1-0.074c-0.48,0.546-0.957,1.039-1.396,1.467l0.369,0.418l-0.207,0.525l0.396,0.449
			c-0.181,0.012-0.364,0.02-0.55,0.02c-0.159-0.335-0.3-0.67-0.43-1.009c-0.878,0.821-1.52,1.316-1.562,1.349l-0.373,0.286
			l-0.372-0.289c-0.069-0.053-1.706-1.331-3.365-3.248c-0.605-0.699-1.13-1.385-1.575-2.058l-0.011,0.003
			c-0.492,0.558-0.979,1.114-1.445,1.694l-0.567,1.344l0.258,0.292l-0.464,0.7l0.516,1.227c0.439,0.496,0.878,0.993,1.316,1.489
			l0.645-0.555l0.284,0.322l0.697-0.432l0.232,0.269h0.697l0.399,0.446l-0.245,0.8l0.491,0.553l-0.026,0.963l0.362,0.701
			l-0.259,0.584c-0.026,0.43-0.051,0.855-0.051,1.285c0.211,0.582,0.431,1.165,0.631,1.751l0.166,0.936v0.459h0.338l0.088-0.054
			c-0.552,0.342-1.13,0.641-1.733,0.896c-1.561,0.66-3.22,0.995-4.93,0.995c-1.711,0-3.369-0.335-4.93-0.995
			c-0.194-0.082-0.385-0.169-0.574-0.26l0.049-0.048l0.155-0.409l0.671-0.234l0.516-1.285l-0.155-0.349l0.36-0.525l0.774-0.176
			l0.413-0.935l-0.103-1.167l0.619-0.876l0.103-0.876c-0.847-0.42-1.687-0.853-2.528-1.285l-0.413-0.818l-0.774-0.175l-0.413-1.109
			l-1.032,0.116l-0.878-0.642l-0.931,0.817v0.129c-0.305-0.081-0.634-0.092-0.884-0.246l-0.214-0.584v-0.643l-0.61,0.066
			c0.052-0.409,0.111-0.853,0.164-1.219h-0.362l-0.361,0.46l-0.362,0.171l-0.516-0.293l-0.052-0.644l0.103-0.698l0.774-0.581h0.619
			l0.103-0.354l0.774,0.173l0.568,0.701l0.103-1.169l0.981-0.818l0.361-0.876l0.722-0.292l0.413-0.584l0.929-0.172l0.465-0.696
			c-0.464,0-0.929,0-1.393,0l0.877-0.427h0.619l0.878-0.288l0.103-0.347l-0.31-0.291l-0.361-0.117l0.103-0.35l-0.258-0.525
			l-0.619,0.233l0.103-0.467l-0.722-0.409l-0.567,0.992l0.051,0.351l-0.567,0.234l-0.362,0.759L247.13,7.81l-0.981-0.409
			l-0.115-0.39c0.024-0.024,0.047-0.049,0.071-0.073c0.113-0.113,0.228-0.223,0.344-0.331l0.835-0.492l0.568-0.525l0.01-0.119
			c0.032-0.022,0.064-0.045,0.097-0.067l-0.003,0.008l-0.258,0.64h0.516l0.258-0.581c0.223-0.157,0.444-0.314,0.671-0.466
			l0.516,0.176c0.344,0.234,0.688,0.468,1.032,0.701l0.516-0.467l-0.568-0.234l-0.258-0.526l-0.944-0.113
			c0.228-0.113,0.46-0.22,0.696-0.32c0.392-0.166,0.796-0.311,1.199-0.435l1.186,0.81v0.467l-0.475,0.467l0.615,1.227l0.409-0.234
			l0.516-0.817c0.797-0.246,1.511-0.526,2.269-0.876l0.6-1.528c0.065,0.007,0.13,0.015,0.194,0.023
			c0.241-0.459,0.53-0.889,0.86-1.284c-0.799-0.139-1.615-0.21-2.443-0.21c-3.756,0-7.288,1.463-9.944,4.119
			C242.463,8.607,241,12.139,241,15.895c0,3.757,1.463,7.288,4.119,9.945c2.656,2.656,6.188,4.119,9.944,4.119
			c3.756,0,7.288-1.463,9.944-4.119c2.656-2.656,4.119-6.188,4.119-9.945c0-1.444-0.217-2.854-0.634-4.194
			C268.103,12.301,267.648,12.911,267.13,13.532z M247.551,26.097c-0.509-0.376-0.992-0.791-1.445-1.244
			c-1.164-1.164-2.077-2.519-2.715-4.027c-0.642-1.518-0.975-3.128-0.993-4.789l0.605,0.358l1.084,0.293l0.465,0.584l0.722,0.525
			l0.411-0.058l0.308,0.139v0.094l-0.411,1.11l-0.309,0.467l0.104,0.234l-0.258,0.875l0.929,1.694l0.929,0.818l0.413,0.584
			l-0.052,1.227l0.31,0.7L247.551,26.097z M264.02,24.853c-0.067,0.067-0.135,0.133-0.203,0.198l-0.063-0.184l0.671-0.586
			l-0.491-0.555l0.593-0.497l0.568-0.351l0.26-0.291l-0.153-0.643c0-0.545,0-1.09,0-1.635l0.462-0.994l0.567-0.642l0.618-1.519
			v-0.409c-0.305,0.039-0.605,0.074-0.906,0.095l0.622-0.621l0.849-0.584l0.299-0.34c0.009,0.199,0.015,0.399,0.015,0.599
			c0,1.711-0.334,3.37-0.995,4.931C266.097,22.334,265.184,23.689,264.02,24.853z"/>
		<polygon fill="#BCBCBC" points="249.295,5.87 249.814,6.209 250.215,6.209 250.215,5.824 249.705,5.59 		"/>
		<polygon fill="#BCBCBC" points="250.691,9.504 251.001,9.036 250.536,8.686 		"/>
	</g>
	<path fill="#BCBCBC" d="M263.031,0.068c-3.643,0-6.596,2.953-6.596,6.596c0,4.967,6.555,10.057,6.555,10.057
		s6.637-5.089,6.637-10.057C269.627,3.021,266.674,0.068,263.031,0.068z M263.031,10.531c-2.136,0-3.868-1.732-3.868-3.868
		s1.732-3.868,3.868-3.868c2.136,0,3.868,1.732,3.868,3.868S265.167,10.531,263.031,10.531z"/>
</g>
</svg>
