<?xml version="1.0" encoding="utf-8"?>
<!-- Generator: Adobe Illustrator 17.0.0, SVG Export Plug-In . SVG Version: 6.00 Build 0)  -->
<!DOCTYPE svg PUBLIC "-//W3C//DTD SVG 1.1//EN" "http://www.w3.org/Graphics/SVG/1.1/DTD/svg11.dtd">
<svg version="1.1" id="Layer_1" xmlns="http://www.w3.org/2000/svg" xmlns:xlink="http://www.w3.org/1999/xlink" x="0px" y="0px"
	 width="30px" height="30.035px" viewBox="0 0 30 30.035" enable-background="new 0 0 30 30.035" xml:space="preserve">
<g>
	<path fill="#5EB12F" d="M15,1.338c-0.953,0-1.884,0.095-2.785,0.272c0.409,0.598,0.715,1.273,0.891,1.997
		c0.381-0.057,0.762-0.099,1.096-0.121v6.145c-0.716-0.027-1.456-0.103-2.199-0.222c-0.255,0.457-0.533,0.894-0.822,1.306
		c0.989,0.196,1.998,0.321,3.021,0.356v3.818H2.804c0.081-1.286,0.363-2.519,0.814-3.67c-0.484-0.642-0.962-1.353-1.372-2.105
		c-1.017,1.97-1.594,4.202-1.594,6.571c0,7.925,6.424,14.349,14.349,14.349s14.349-6.424,14.349-14.349S22.925,1.338,15,1.338z
		 M2.794,16.218h3.78c0.064,1.86,0.386,3.712,0.935,5.402c-0.831,0.337-1.632,0.708-2.403,1.15
		C3.76,20.917,2.92,18.875,2.794,16.218z M6.032,23.981c0.567-0.315,1.152-0.602,1.754-0.857c0.072-0.03,0.144-0.059,0.217-0.088
		c0.56,1.371,1.274,2.661,2.117,3.855C8.562,26.209,7.173,25.213,6.032,23.981z M14.203,27.887
		c-0.531-0.035-1.144-0.111-1.716-0.229c-1.312-1.474-2.347-3.135-3.117-4.956c-0.021-0.049-0.07-0.099-0.091-0.149
		c1.599-0.513,3.329-0.802,4.924-0.863V27.887z M14.203,20.249c-1.86,0.064-3.684,0.329-5.409,0.888
		c-0.504-1.567-0.749-3.06-0.81-4.92h6.219V20.249z M27.196,14.889h-3.881c-0.068-1.86-0.391-3.587-0.934-5.262
		c0.852-0.343,1.671-0.751,2.46-1.203C26.194,10.26,27.046,12.498,27.196,14.889z M23.909,7.331
		c-0.572,0.318-1.161,0.609-1.769,0.866c-0.084,0.036-0.17,0.07-0.255,0.104c-0.564-1.378-1.282-2.676-2.132-3.874
		C21.337,5.097,22.749,6.095,23.909,7.331z M15.797,3.484c0.531,0.032,1.083,0.104,1.633,0.213c1.305,1.47,2.33,3.126,3.097,4.941
		c0.02,0.047,0.078,0.095,0.098,0.142c-1.572,0.501-3.234,0.785-4.828,0.85V3.484z M15.797,11.07
		c1.86-0.067,3.611-0.415,5.311-0.962c0.5,1.551,0.732,3.188,0.797,4.782h-6.107V11.07z M15.797,16.218h6.109
		c-0.061,1.86-0.291,3.345-0.793,4.909c-1.701-0.548-3.456-0.809-5.316-0.876V16.218z M15.797,27.889v-6.198
		c1.594,0.064,3.248,0.349,4.822,0.852c-0.022,0.053-0.069,0.106-0.091,0.159c-0.774,1.831-1.798,3.5-3.12,4.98
		C16.869,27.787,16.329,27.857,15.797,27.889z M19.722,26.96c0.867-1.216,1.598-2.535,2.17-3.937
		c0.083,0.033,0.166,0.066,0.248,0.101c0.619,0.262,1.219,0.559,1.801,0.884C22.768,25.269,21.333,26.282,19.722,26.96z
		 M24.87,22.804c-0.796-0.461-1.623-0.85-2.483-1.197c0.545-1.686,0.867-3.529,0.93-5.389h3.889
		C27.08,18.875,26.23,20.944,24.87,22.804z"/>
	<path fill="#5EB12F" d="M7.161,0C4.368,0,2.104,2.264,2.104,5.058c0,3.986,5.058,8.495,5.058,8.495s5.058-4.152,5.058-8.495
		C12.219,2.264,9.955,0,7.161,0z M7.2,10.573c-1.463-1.642-2.97-3.865-2.97-5.515c0-1.617,1.315-2.932,2.932-2.932
		s2.932,1.315,2.932,2.932C10.093,6.979,8.518,9.143,7.2,10.573z"/>
	<circle fill="#5EB12F" cx="7.161" cy="5.058" r="1.661"/>
</g>
</svg>
