<?xml version="1.0" encoding="utf-8"?>
<!-- Generator: Adobe Illustrator 16.0.0, SVG Export Plug-In . SVG Version: 6.00 Build 0)  -->
<!DOCTYPE svg PUBLIC "-//W3C//DTD SVG 1.1//EN" "http://www.w3.org/Graphics/SVG/1.1/DTD/svg11.dtd">
<svg version="1.1" id="레이어_1" xmlns="http://www.w3.org/2000/svg" xmlns:xlink="http://www.w3.org/1999/xlink" x="0px"
	 y="0px" width="595.28px" height="841.89px" viewBox="0 0 595.28 841.89" enable-background="new 0 0 595.28 841.89"
	 xml:space="preserve">
<circle fill="#29B3FF" cx="297.558" cy="119.183" r="87.222"/>
<g>
	<g>
		<path d="M530.071,86.731l-6.837-2.104l-1-18h-20l-9,12l-59.652,30.678c0,0-6.021,4.066-7.348,6.656
			c-1.273,2.486-1.343,9.717-1.343,9.717l6.26,41.729c0,0,0.7,6.029,2.083,7.22c2.842,2.447,9.754,2.002,12-1
			c1.285-1.716,1.252-7.542,1.252-7.542l-2.753-31.468c0,0-0.454-6.231,0.501-7.99c0.902-1.659,6.582-4.707,6.582-4.707
			l20.059-10.293l8.359,55l-26.068,74.611c0,0-2.93,4.425-4.932,5.389c-2.043,0.983-6.559,0-6.559,0l-57.584-20.446
			c-23.857-9.22-33.857,17.446-12.857,26.446l74.926,24.871c6.619,3.122,18.478-0.369,24.93-7.568l16.145-36.303l36.078,36.766
			l25.922,82.234c9.333,27.666,37,16.802,28-11l-26-90.334l-36.667-37.666l16.126-66.757l9.107,3.96
			c7.432,3.129,7.432,3.129,14.044-1.377l23.39-12.826c14-6.667,5.304-27.334-9-20l-23,13l-7.249-33.02
			C537.234,91.293,534.276,89.49,530.071,86.731z"/>
		<circle cx="512.234" cy="50.96" r="25"/>
	</g>
	<g id="t2dMgN.tif">
		<g>
			<path fill-rule="evenodd" clip-rule="evenodd" fill="#FF0000" d="M506.741,108.909c4.117-3.717,8.522-6.057,14.055-5.122
				c9.507,1.607,14.99,11.571,10.791,20.87c-1.876,4.152-5.183,7.827-8.421,11.154c-4.261,4.379-9.128,8.162-13.664,12.279
				c-1.969,1.786-3.766,1.824-5.72,0.069c-4.938-4.435-9.958-8.778-14.832-13.281c-4.588-4.239-8.369-8.994-8.554-15.672
				c-0.164-5.988,2.062-10.814,7.388-13.718c5.409-2.949,10.796-2.521,15.84,1.136C504.552,107.297,505.471,107.978,506.741,108.909
				z"/>
		</g>
	</g>
</g>
<path fill="#FFFFFF" d="M312.396,189.105l7.626-34.853l9.83,3.874c7.205,3.062,7.205,3.062,13.617-1.347l23.678-14.548
	c13.574-6.522,5.143-25.742-8.727-18.567l-22.301,13.718l-9.027-31.305c-0.729-5.199-3.597-6.964-7.674-9.663l-6.629-3.058
	l-2.97-14.61h-17.392l-7.727,10.74l-47.02,29.057c0,0-5.838,3.979-7.125,6.512c-1.234,2.433-1.302,9.507-1.302,9.507l5.008,31.869
	c0,0,1.679,4.899,3.02,6.063c2.755,2.394,9.457,1.959,11.635-0.979c1.246-1.679,1.214-7.379,1.214-7.379l-3.608-22.83
	c0,0-0.44-5.097,0.486-6.817c0.875-1.623,5.382-4.605,5.382-4.605l10.631-7.113l7.105,53.809l-4.487,12.959L312.396,189.105z"/>
<ellipse fill="#FFFFFF" cx="301.124" cy="64.419" rx="24.24" ry="24.458"/>
<g id="t2dMgN.tif_1_">
	<g>
		<path fill-rule="evenodd" clip-rule="evenodd" fill="#FF5A5A" d="M297.828,114.113c3.992-3.636,8.263-5.926,13.627-5.011
			c9.218,1.572,14.534,11.32,10.463,20.418c-1.818,4.062-5.025,7.658-8.165,10.913c-4.131,4.284-8.851,7.985-13.249,12.013
			c-1.908,1.747-3.65,1.784-5.545,0.067c-4.788-4.338-9.655-8.588-14.381-12.993c-4.449-4.147-8.115-8.8-8.294-15.333
			c-0.159-5.859,1.999-10.58,7.163-13.421c5.245-2.885,10.468-2.467,15.358,1.112C295.705,112.536,296.596,113.202,297.828,114.113z
			"/>
	</g>
</g>
</svg>
